<mxfile host="65bd71144e">
    <diagram id="fdDoiHzEFpXNY2RQPOoG" name="ページ1">
        <mxGraphModel dx="674" dy="599" grid="1" gridSize="10" guides="1" tooltips="1" connect="1" arrows="1" fold="1" page="1" pageScale="1" pageWidth="827" pageHeight="1169" math="0" shadow="0">
            <root>
                <mxCell id="0"/>
                <mxCell id="1" parent="0"/>
                <mxCell id="2" value="" style="rounded=0;whiteSpace=wrap;html=1;" vertex="1" parent="1">
                    <mxGeometry x="120" y="40" width="480" height="320" as="geometry"/>
                </mxCell>
                <mxCell id="3" value="Title (Static)" style="rounded=0;whiteSpace=wrap;html=1;" vertex="1" parent="1">
                    <mxGeometry x="130" y="50" width="460" height="20" as="geometry"/>
                </mxCell>
                <mxCell id="4" value="Status (Static)" style="rounded=0;whiteSpace=wrap;html=1;" vertex="1" parent="1">
                    <mxGeometry x="130" y="140" width="460" height="210" as="geometry"/>
                </mxCell>
                <mxCell id="5" value="Work Time (Input)" style="rounded=0;whiteSpace=wrap;html=1;" vertex="1" parent="1">
                    <mxGeometry x="130" y="80" width="120" height="20" as="geometry"/>
                </mxCell>
                <mxCell id="6" value="Break Time (Input)" style="rounded=0;whiteSpace=wrap;html=1;" vertex="1" parent="1">
                    <mxGeometry x="260" y="80" width="120" height="20" as="geometry"/>
                </mxCell>
                <mxCell id="7" value="Start (Button)" style="rounded=0;whiteSpace=wrap;html=1;" vertex="1" parent="1">
                    <mxGeometry x="130" y="110" width="120" height="20" as="geometry"/>
                </mxCell>
                <mxCell id="8" value="Stop (Button)" style="rounded=0;whiteSpace=wrap;html=1;" vertex="1" parent="1">
                    <mxGeometry x="260" y="110" width="120" height="20" as="geometry"/>
                </mxCell>
                <mxCell id="9" value="Reset (Button)" style="rounded=0;whiteSpace=wrap;html=1;" vertex="1" parent="1">
                    <mxGeometry x="390" y="110" width="120" height="20" as="geometry"/>
                </mxCell>
            </root>
        </mxGraphModel>
    </diagram>
</mxfile>